<?xml version="1.0" encoding="utf-8"?>
<svg width="894px" height="316px" viewBox="0 0 894 316" version="1.1" xmlns:xlink="http://www.w3.org/1999/xlink" xmlns="http://www.w3.org/2000/svg">
  <desc>Created with Lunacy</desc>
  <defs>
    <filter filterUnits="userSpaceOnUse" color-interpolation-filters="sRGB" id="filter_1">
      <feFlood flood-opacity="0" result="BackgroundImageFix" />
      <feColorMatrix in="SourceAlpha" type="matrix" values="0 0 0 0 0 0 0 0 0 0 0 0 0 0 0 0 0 0 127 0" />
      <feOffset dx="0" dy="2" />
      <feGaussianBlur stdDeviation="2" />
      <feColorMatrix type="matrix" values="0 0 0 0 0.3921569 0 0 0 0 0.3921569 0 0 0 0 0.3921569 0 0 0 0.4980392 0" />
      <feBlend mode="normal" in2="BackgroundImageFix" result="effect0_dropShadow" />
      <feColorMatrix in="SourceAlpha" type="matrix" values="0 0 0 0 0 0 0 0 0 0 0 0 0 0 0 0 0 0 127 0" />
      <feOffset dx="0" dy="2" />
      <feGaussianBlur stdDeviation="14" />
      <feColorMatrix type="matrix" values="0 0 0 0 1 0 0 0 0 0.945098 0 0 0 0 0.945098 0 0 0 0.4980392 0" />
      <feBlend mode="normal" in2="effect0_dropShadow" result="effect1_dropShadow" />
      <feBlend mode="normal" in="SourceGraphic" in2="effect1_dropShadow" result="shape" />
    </filter>
  </defs>
  <g filter="url(#filter_1)" transform="translate(42 40)">
    <g id="PING-PONG" fill="#00FF67">
      <path d="M273.797 60.1719L273.234 59.8203L270.914 60.1719Q270.422 60.1719 269.578 61.4375L268.875 61.4375L267.328 62.8438L263.672 69.6641L262.406 69.9453Q261.703 71.9844 261.07 72.6875L259.805 74.2344L258.82 77.1172L257.203 80.1406L255.938 81.1953L255.023 84.9219Q254.32 85.4141 253.617 86.9609L249.609 97.7188L248.906 98.6328Q248.203 99.5469 247.711 99.7578Q246.938 102.992 245.391 104.961L245.391 106.93L243.844 109.531L243.844 111.148L241.102 113.117Q239.766 116.703 239.695 117.547L239.484 119.586L236.883 128.094L236.883 129.148L235.898 129.43L235.617 131.117L233.578 130.836L232.313 129.43L232.313 128.516L230.695 126.828L224.789 115.156L219.234 105.664L218.602 104.961L218.883 103.063L215.859 100.461L215.578 97.5781L213.75 97.5781L213.75 95.6797L212.695 93.0078L210.586 81.6172Q210.234 80 212.273 76.4141L210.445 72.6875L206.93 73.1094L202.922 74.6563L201.023 76.6953L193.148 81.1953L189.773 81.7578Q186.328 82.3203 185.414 83.0234Q184.5 83.7266 183.305 83.8672L181.336 84.0781L181.055 84.6406L178.242 85.625Q177.188 86.0469 176.766 86.4688L175.43 87.9453L173.813 87.6641L173.531 89.9844L169.945 90.9688Q167.203 94.1328 166.922 94.8359L167.906 95.8203L167.203 96.7344L164.602 95.8203L164.602 97.1563L163.055 98.4219L163.055 100.039L164.039 100.32L164.32 101.727L162.773 102.359L162.773 104.961L164.602 108.547L168.961 106.648L177.188 99.0547L180.352 92.5156L181.617 93.2891L187.523 91.25L193.43 91.25L193.148 93.2891L191.813 93.5703L191.109 95.8203L192.164 99.4766Q190.758 100.32 190.125 101.305L192.867 108.266L191.813 112.133L192.164 113.398L191.391 116L191.109 117.758L189.563 120.359L190.125 122.328L188.227 125.211L188.227 128.094L188.508 129.148L184.219 146.797L184.219 149.68L182.602 151.438L182.602 153.055L181.617 156.922L178.453 161.211L176.133 161.773L176.695 164.375L174.445 166.414L174.445 167.117L176.414 167.117L177.188 168.031L175.43 170L176.133 172.602L178.734 173.305L183.938 171.055L183.656 170.281L186.258 169.016L187.242 167.117L190.547 156.922L191.109 156.359L191.109 155.023L192.164 150.734L193.43 149.117L193.43 147.148L194.695 144.266L194.414 142.227L194.977 141.523L194.133 139.344L194.977 137.305L194.695 134.422L198 130.414L198 126.828L198.633 123.664L197.016 122.609L196.313 120.359L197.719 119.586Q198.844 116.281 199.336 113.398L199.336 112.133L201.234 108.125L202.922 107.773Q203.344 109.813 203.766 110.305L205.805 112.977L206.789 115.719L207.563 115.719L208.406 117.898L209.391 118.32L210.445 119.867L210.164 121.484L211.148 123.523L215.016 127.109Q215.156 128.375 216.352 130.414L217.898 133.578L220.922 136.32L222.539 141.805L223.523 141.805Q225.773 144.266 226.125 145.531L227.109 144.828L229.711 145.813L229.008 146.516L229.992 148.414L229.008 150.031L233.016 155.867L232.594 158.188L233.578 163.109L233.578 168.734L236.602 174.219L240.82 171.195L243.141 168.453L245.672 168.734L248.695 164.375L249.609 164.375L250.594 162.125L250.594 160.227L252.352 158.609L251.578 152L250.313 150.453L251.016 149.398Q247.992 145.953 247.992 144.828L248.273 140.961L248.695 140.961L247.992 135.758L248.695 133.438L247.43 132.172L247.43 130.414L246.727 129.852L247.711 126.547L247.43 123.945Q248.273 122.609 249.328 119.305L248.695 117.477L249.609 114.453L249.609 112.836Q251.297 111.148 251.438 110.727L252.352 108.266L252.914 103.625L254.18 101.727L255.234 98.4219L257.484 94.1328L257.766 90.9688L260.367 87.9453L266.273 75.8516L267.609 75.8516L269.859 77.5391L272.461 77.8203L277.805 76.5547L278.789 75.2891L286.594 69.6641L281.953 64.7422L275.484 60.1719L273.797 60.1719ZM717.258 59.8203L717.82 60.1719L719.508 60.1719L725.977 64.7422L730.617 69.6641L722.813 75.2891L721.828 76.5547L716.484 77.8203L713.883 77.5391L711.633 75.8516L710.297 75.8516L704.391 87.9453L701.789 90.9688L701.508 94.1328L699.258 98.4219L698.203 101.727L696.938 103.625L696.375 108.266L695.461 110.727Q695.32 111.148 693.633 112.836L693.633 114.453L692.719 117.477L693.352 119.305Q692.297 122.609 691.453 123.945L691.734 126.547L690.75 129.852L691.453 130.414L691.453 132.172L692.719 133.438L692.016 135.758L692.719 140.961L692.297 140.961L692.016 144.828Q692.016 145.953 695.039 149.398L694.336 150.453L695.602 152L696.375 158.609L694.617 160.227L694.617 162.125L693.633 164.375L692.719 164.375L689.695 168.734L687.164 168.453L684.844 171.195L680.625 174.219L677.602 168.734L677.602 163.109L676.617 158.188L677.039 155.867L673.031 150.031L674.016 148.414L673.031 146.516L673.734 145.813L671.133 144.828L670.148 145.531Q669.797 144.266 667.547 141.805L666.563 141.805L664.945 136.32L661.922 133.578L660.375 130.414Q659.18 128.375 659.039 127.109L655.172 123.523L654.188 121.484L654.469 119.867L653.414 118.32L652.43 117.898L651.586 115.719L650.813 115.719L649.828 112.977L647.789 110.305Q647.367 109.813 646.945 107.773L645.258 108.125L643.359 112.133L643.359 113.398Q642.867 116.281 641.742 119.586L640.336 120.359L641.039 122.609L642.656 123.664L642.023 126.828L642.023 130.414L638.719 134.422L639 137.305L638.156 139.344L639 141.523L638.438 142.227L638.719 144.266L637.453 147.148L637.453 149.117L636.188 150.734L635.133 155.023L635.133 156.359L634.57 156.922L631.266 167.117L630.281 169.016L627.68 170.281L627.961 171.055L622.758 173.305L620.156 172.602L619.453 170L621.211 168.031L620.438 167.117L618.469 167.117L618.469 166.414L620.719 164.375L620.156 161.773L622.477 161.211L625.641 156.922L626.625 153.055L626.625 151.438L628.242 149.68L628.242 146.797L632.531 129.148L632.25 128.094L632.25 125.211L634.148 122.328L633.586 120.359L635.133 117.758L635.414 116L636.188 113.398L635.836 112.133L636.891 108.266L634.148 101.305Q634.781 100.32 636.188 99.4766L635.133 95.8203L635.836 93.5703L637.172 93.2891L637.453 91.25L631.547 91.25L625.641 93.2891L624.375 92.5156L621.211 99.0547L612.984 106.648L608.625 108.547L606.797 104.961L606.797 102.359L608.344 101.727L608.063 100.32L607.078 100.039L607.078 98.4219L608.625 97.1563L608.625 95.8203L611.227 96.7344L611.93 95.8203L610.945 94.8359Q611.227 94.1328 613.969 90.9688L617.555 89.9844L617.836 87.6641L619.453 87.9453L620.789 86.4688Q621.211 86.0469 622.266 85.625L625.078 84.6406L625.359 84.0781L627.328 83.8672Q628.523 83.7266 629.438 83.0234Q630.352 82.3203 633.797 81.7578L637.172 81.1953L645.047 76.6953L646.945 74.6563L650.953 73.1094L654.469 72.6875L656.297 76.4141Q654.258 80 654.609 81.6172L656.719 93.0078L657.773 95.6797L657.773 97.5781L659.602 97.5781L659.883 100.461L662.906 103.063L662.625 104.961L663.258 105.664L668.813 115.156L674.719 126.828L676.336 128.516L676.336 129.43L677.602 130.836L679.641 131.117L679.922 129.43L680.906 129.148L680.906 128.094L683.508 119.586L683.719 117.547Q683.789 116.703 685.125 113.117L687.867 111.148L687.867 109.531L689.414 106.93L689.414 104.961Q690.961 102.992 691.734 99.7578Q692.227 99.5469 692.93 98.6328L693.633 97.7188L697.641 86.9609Q698.344 85.4141 699.047 84.9219L699.961 81.1953L701.227 80.1406L702.844 77.1172L703.828 74.2344L705.094 72.6875Q705.727 71.9844 706.43 69.9453L707.695 69.6641L711.352 62.8438L712.898 61.4375L713.602 61.4375Q714.445 60.1719 714.938 60.1719L717.258 59.8203ZM35.0156 64.7422L36.4219 65.7266L50.6953 67.0625L51.1172 67.3438L65.1094 69.3828L66.0938 71.6328L67.7109 72.6875L70.3828 71.2109L71.0156 71.2109L72.2813 70.6484L73.6172 71.2109L75.8672 71.2109L76.9219 72.6875L77.625 71.6328L80.7891 71.9844L81.7734 72.9688Q86.4844 73.6719 87.6797 75.8516L93.1641 76.5547L92.8828 77.5391L93.8672 78.4531L95.2031 78.4531L96.5391 79.2266Q97.1719 79.5781 99.7734 80.1406L100.828 81.4766L103.359 81.7578L104.977 86.0469L103.641 88.7891Q103.359 89.2109 103.078 91.8125L103.992 93.5703L101.109 98.7031Q100.477 99.8281 99.4922 100.531Q98.5078 101.234 96.0469 102.5L94.1484 103.344L86.6953 108.547L76.1484 114.172L74.3906 114.242L72.9141 114.383Q72.2813 114.453 70.3828 115.438L69.1172 115.156L68.1328 116.281Q67.7109 116.703 64.5469 118.32L60.4688 119.023L57.3047 121.344L42.6094 125.492L41.9063 124.93L38.0391 126.547L36.7031 126.547L35.0156 128.797L35.0156 132.453L34.3828 135.758L34.3828 139.625L32.4141 141.242L33.1172 141.945L33.3984 143.211L32.8359 143.773L32.1328 148.133L32.8359 148.695L31.0781 150.734L32.4141 152L31.3594 153.336L31.0781 156.922L29.8125 158.188L30.0938 159.945L28.1953 164.094L28.1953 167.398L24.6094 174.922L23.2734 176.891Q22.6406 177.805 21.5859 180.547L20.3203 181.109L20.3203 182.375L10.8281 191.867L5.34375 194.75L3.02344 194.75L2.74219 195.523L0.140625 195.523L-1.61719 194.188Q-1.33594 191.727 -0.5625 190.602Q-1.54687 188.914 -2.88281 188L-1.61719 186.031L2.74219 182.375L4.64063 181.813L7.17188 181.813L8.92969 184.414Q13.8516 180.688 14.4141 178.789L15.8203 178.227L15.3984 177.242L16.7344 174.922L17.4375 174.641L17.7188 173.305L18.7031 172.602L18.9844 171.617L18.9844 168.734L21.0234 167.398L20.3203 166.695L22.0078 164.375L22.0078 163.531L22.9219 160.508L23.3438 158.117Q23.625 156.922 24.6094 155.023L23.9063 154.32L24.8906 153.617L23.9063 152.703L25.1719 152.281L24.6094 151.438L26.2266 144.828L26.2266 142.508L27.2109 139.906L25.9453 138.922L27.2109 138.641L28.5469 135.336L25.6641 130.836L24.8906 127.531L24.8906 126.547L25.6641 124.93L29.25 122.328Q29.8828 120.711 30.0938 120.641L29.5313 119.305L29.8125 117.758L30.0938 117.477L30.0938 114.172L28.1953 112.836L28.8281 112.133L28.5469 109.25L29.5313 107.492L28.8281 106.648L27.4922 106.648L28.5469 103.906L29.25 103.625L28.1953 103.063L27.4922 100.039L26.2266 99.7578L27.2109 98.4219L26.2266 97.1563L26.2266 95.3984L25.1719 94.8359Q25.6641 93.9219 25.9453 92.5156L24.3281 91.5313L20.7422 94.1328L20.7422 95.1172L18 97.1563L16.1016 99.0547L12.5156 100.742L7.66406 105.383L6.32813 103.906L6.32813 103.063L5.0625 102.078L5.27344 100.813Q5.34375 100.32 7.17188 96.7344L10.1953 94.1328L11.5313 92.5156L16.7344 89.6328L17.4375 88.2266L18.7031 88.2266Q20.3906 86.75 21.3047 86.6094L22.2891 85.3438Q26.2266 83.4453 26.5078 83.0234L26.5078 82.0391L25.3828 80.0703Q24.8906 79.1563 22.6406 76.8359L22.0078 73.9531L22.6406 72.6875L26.5078 71.9844Q29.3906 68.1875 32.4141 66.3594L35.0156 64.7422ZM463.219 64.7422L464.625 65.7266L478.898 67.0625L479.32 67.3438L493.313 69.3828L494.297 71.6328L495.914 72.6875L498.586 71.2109L499.219 71.2109L500.484 70.6484L501.82 71.2109L504.07 71.2109L505.125 72.6875L505.828 71.6328L508.992 71.9844L509.977 72.9688Q514.688 73.6719 515.883 75.8516L521.367 76.5547L521.086 77.5391L522.07 78.4531L523.406 78.4531L524.742 79.2266Q525.375 79.5781 527.977 80.1406L529.031 81.4766L531.563 81.7578L533.18 86.0469L531.844 88.7891Q531.563 89.2109 531.281 91.8125L532.195 93.5703L529.313 98.7031Q528.68 99.8281 527.695 100.531Q526.711 101.234 524.25 102.5L522.352 103.344L514.898 108.547L504.352 114.172L502.594 114.242L501.117 114.383Q500.484 114.453 498.586 115.438L497.32 115.156L496.336 116.281Q495.914 116.703 492.75 118.32L488.672 119.023L485.508 121.344L470.813 125.492L470.109 124.93L466.242 126.547L464.906 126.547L463.219 128.797L463.219 132.453L462.586 135.758L462.586 139.625L460.617 141.242L461.32 141.945L461.602 143.211L461.039 143.773L460.336 148.133L461.039 148.695L459.281 150.734L460.617 152L459.563 153.336L459.281 156.922L458.016 158.188L458.297 159.945L456.398 164.094L456.398 167.398L452.813 174.922L451.477 176.891Q450.844 177.805 449.789 180.547L448.523 181.109L448.523 182.375L439.031 191.867L433.547 194.75L431.227 194.75L430.945 195.523L428.344 195.523L426.586 194.188Q426.867 191.727 427.641 190.602Q426.656 188.914 425.32 188L426.586 186.031L430.945 182.375L432.844 181.813L435.375 181.813L437.133 184.414Q442.055 180.688 442.617 178.789L444.023 178.227L443.602 177.242L444.938 174.922L445.641 174.641L445.922 173.305L446.906 172.602L447.188 171.617L447.188 168.734L449.227 167.398L448.523 166.695L450.211 164.375L450.211 163.531L451.125 160.508L451.547 158.117Q451.828 156.922 452.813 155.023L452.109 154.32L453.094 153.617L452.109 152.703L453.375 152.281L452.813 151.438L454.43 144.828L454.43 142.508L455.414 139.906L454.148 138.922L455.414 138.641L456.75 135.336L453.867 130.836L453.094 127.531L453.094 126.547L453.867 124.93L457.453 122.328Q458.086 120.711 458.297 120.641L457.734 119.305L458.016 117.758L458.297 117.477L458.297 114.172L456.398 112.836L457.031 112.133L456.75 109.25L457.734 107.492L457.031 106.648L455.695 106.648L456.75 103.906L457.453 103.625L456.398 103.063L455.695 100.039L454.43 99.7578L455.414 98.4219L454.43 97.1563L454.43 95.3984L453.375 94.8359Q453.867 93.9219 454.148 92.5156L452.531 91.5313L448.945 94.1328L448.945 95.1172L446.203 97.1563L444.305 99.0547L440.719 100.742L435.867 105.383L434.531 103.906L434.531 103.063L433.266 102.078L433.477 100.813Q433.547 100.32 435.375 96.7344L438.398 94.1328L439.734 92.5156L444.938 89.6328L445.641 88.2266L446.906 88.2266Q448.594 86.75 449.508 86.6094L450.492 85.3438Q454.43 83.4453 454.711 83.0234L454.711 82.0391L453.586 80.0703Q453.094 79.1563 450.844 76.8359L450.211 73.9531L450.844 72.6875L454.711 71.9844Q457.594 68.1875 460.617 66.3594L463.219 64.7422ZM163.898 68.6094L165.164 69.1016L165.445 71.9844L168.469 72.9688L168.469 73.9531L166.43 75.2891L165.867 77.1172Q160.945 78.875 156.938 81.7578Q154.828 84.2891 153.352 85.0625L144.844 89.2109L145.898 90.5469L143.859 94.8359Q143.648 96.7344 142.594 99.4063L141.68 101.727L138.938 114.453L137.109 126.547L136.055 126.266L136.055 135.758L135.352 135.758L136.055 137.305L135.773 138.922L136.688 150.031L136.336 151.016L137.672 152.281L144.563 151.719L146.25 152.352Q148.078 153.055 148.781 153.617Q145.125 158.891 143.578 158.961L143.016 160.227L140.977 159.945L138.938 162.828L137.391 163.109L136.477 164.305Q136.055 164.797 133.523 166.414L131.766 166.133L128.18 167.398L122.414 168.031L111.586 170L108.984 171.055L107.016 169.719L105.398 170.281L104.977 166.414L109.266 162.547L109.969 161.633Q110.32 161.211 112.148 160.227L112.641 158.609L112.922 159.242L116.086 157.203L120.375 156.359L121.992 156.641L124.172 155.727Q125.297 155.305 127.266 153.617L127.266 151.719L126.281 150.453L126.844 144.547L126.281 143.492L127.266 140.961L126.844 137.023L126 136.32L127.266 134.422L126.844 132.453L127.617 130.133L126.844 128.797Q128.109 126.055 129.586 124.508L128.18 122.609L129.586 119.023Q129.375 118.109 127.617 116.703L129.586 113.82L126.844 112.414L128.18 110.234L127.617 107.492L128.18 103.906L128.18 102.078L129.867 100.039Q130.43 96.4531 131.203 94.8359L132.188 94.1328L130.922 90.5469L131.766 88.2266L129.586 87.3828L125.297 88.6484L123.258 90.5469Q122.273 91.0391 121.359 91.8125L120.094 91.8125L118.898 89.8438Q118.336 88.9297 117.492 85.625L118.828 83.1641Q119.742 81.6875 122.695 81.4766L122.695 80.4219L123.68 80.1406L124.594 78.875L126 78.875Q128.18 77.6094 130.148 75.8516L132.469 75.5703Q135.633 73.5313 136.055 73.5313L138.094 73.5313L138.094 73.9531Q139.781 74.0938 142.594 75.5703L145.125 73.9531L154.688 74.2344L156.375 74.5156L161.859 69.9453L163.898 68.6094ZM578.391 71.6328L576.633 71.2109L573.82 71.9844L570.164 71.9844L565.313 73.9531Q562.711 75.0078 562.008 76.8359Q561.656 76.9063 559.406 78.875L559.125 80.4219L557.367 81.1953L556.805 82.7422L552.938 86.9609L552.938 87.6641L551.602 87.9453L551.602 89.2109Q550.336 90.5469 550.055 91.25L549.563 92.7969L549.281 92.7969L548.297 95.3984L547.313 96.1719L547.594 98.7031L546.75 99.4766L547.313 99.7578L545.977 100.039L545.695 100.742L545.695 102.078L544.992 102.359L544.711 104.328L544.711 105.664L544.57 105.383L541.828 112.133L542.109 113.398L541.406 113.82L541.828 114.453L541.125 116L541.406 116L539.789 122.609L539.789 125.984L538.523 128.094L539.086 130.133L538.805 133.438L539.086 134.422L538.242 135.055L539.086 138.359L538.242 143.492L538.805 143.773L538.242 145.109L538.523 147.148L538.242 149.117L539.086 149.117Q539.789 152.703 540.07 153.195L540.844 154.32L541.828 156.359L541.406 157.203L542.109 157.906L540.844 158.609L540.352 159.523L542.109 160.227L542.391 161.492L543.727 161.352L544.711 163.531Q545.484 163.602 547.031 165.148Q548.859 166.414 550.195 166.836L552.938 167.68L553.5 167.398L555.188 168.453Q556.945 167.188 558.352 166.695L560.109 164.797L561.375 164.797L568.617 158.609L573.82 153.336L573.047 152.281L574.383 152.703L576.352 150.031L576.07 149.68Q578.18 147.008 580.008 145.531L581.273 143.211L581.977 142.93L583.031 139.625L584.297 138.922Q584.227 138.5 586.898 134.422L586.195 133.438L588.797 131.75Q589.781 131.117 591.188 130.766L593.648 130.133L595.688 126.828L598.289 125.492L595.688 122.961Q595.969 121.625 596.461 121.133L598.57 118.742L598.008 116.422L599.555 113.82L598.992 111.852L599.273 109.25L598.289 108.266L598.992 103.906L597.305 102.289Q596.672 101.727 596.039 101.445L593.086 100.039L590.063 100.039L589.219 96.7344L587.18 94.8359L587.883 92.2344L586.898 90.2656L587.18 88.6484L584.297 84.6406L584.578 82.7422L582.258 79.7188Q582.117 76.0625 580.535 74.1641Q578.953 72.2656 578.391 71.6328ZM332.297 72.6875L333.984 72.9688L335.602 73.5313L339.188 73.25L341.227 73.9531L341.508 74.7969L341.789 74.5156L342.492 76.1328L343.477 76.1328L345.656 79.7188L344.813 81.4766L345.094 84.6406L345.094 87.9453L343.477 89.6328L344.391 91.5313L346.359 90.9688L347.977 91.25L347.977 92.7969L347.133 94.8359L349.945 101.023L349.031 101.938Q348.68 102.359 345.656 103.625L345.094 105.945L345.375 108.547L344.109 110.797Q341.016 112.133 339.188 113.398L338.625 114.734L335.883 113.82Q333.773 115.789 333.281 117.477L329.977 117.758L328.641 115.438L329.133 113.398L327.797 110.516L329.695 105.945L329.414 103.906L329.977 100.32L329.977 96.7344L330.68 90.9688L329.414 86.6094L328.641 85.3438L328.078 85.3438L326.109 84.3594L322.453 84.3594Q317.883 86.3984 317.602 86.9609L316.969 86.9609L306.211 97.7188L304.875 100.742L303.891 101.305L303.609 103.063L300.305 106.648L299.32 111.57L297.844 113.188Q297 114.172 296.719 115.086L295.945 117.758L294.398 117.758L294.398 120.641L293.414 121.344L292.359 127.813L290.531 129.43L290.25 131.398L290.813 133.016L289.758 135.758L290.25 140.961L288.773 142.227L288.211 144.828L289.195 147.43L289.477 150.734L293.133 157.203L294.117 159.523L297.703 161.492L295.383 161.492L295.383 163.531L298.266 164.094L304.875 163.531L305.789 163.813Q307.898 162.828 309.375 161.492L310.078 161.492L311.695 158.609L316.969 155.867L318.305 154.813Q318.867 154.32 321.891 153.055L321.891 152.281L324.211 151.719Q324.422 150.664 326.215 149.258Q328.008 147.852 329.414 147.852Q330.961 144.898 332.719 143.492L332.719 139.625L338.625 133.719L340.734 133.016L346.078 129.43L347.977 129.148L350.297 130.836L351.281 129.43L354.164 130.836L352.266 136.039L351 136.32L351.281 151.719L351.984 152.703L351.984 156.359L351 158.188L351.281 161.492L350.578 162.547L350.578 165.711L347.133 175.203L345.516 181.391L344.531 183.008L344.531 184.273L343.477 186.313Q341.297 189.336 341.227 189.898L340.875 189.195L340.594 190.18L338.344 191.727L337.289 193.766L336.023 195.102L334.688 197.984L332.719 200.234L331.664 202.273Q329.766 203.75 327.797 206.141L325.195 206.844L325.477 208.742Q323.508 210.219 322.313 210.5L321.891 211.344L321.891 212.609L319.289 213.664L317.742 215.984L316.406 216.266L315.984 217.672L308.531 221.82L307.195 223.156L306.211 222.875L303.609 225.758L302.344 225.477L300.023 227.023L298.969 230.047L296.859 230.609L294.539 230.328L290.25 232.367L288.352 231.383L286.313 233.984L284.766 234.266L283.992 233.633L282.375 234.477Q281.461 234.969 280.547 235.039L278.156 235.25L276.539 233.211L277.805 230.328L278.438 230.609L279.422 229.344L280.125 229.625Q282.656 229.063 283.711 228.359L283.992 228.781L285.328 228.078L286.313 228.078Q286.805 227.375 289.547 226.25L292.219 225.195L293.555 225.195L294.539 224.141L297.422 223.156L303.891 219.852L305.93 217.953L308.953 216.688L310.219 215.633L311.555 214.93L316.406 210.781L316.406 210.078L320.625 205.859L322.313 204.594L322.875 202.555L327.234 198.125L327.234 196.367L331.664 189.477L331.664 188.422L333.141 187.859L335.602 180.125L335.32 175.625L336.586 173.867Q336.164 167.961 334.969 166.133L336.305 160.789L336.867 160.508L335.883 157.906L334.266 156.922L332.719 152L331.383 152Q329.555 153.266 328.641 155.023L325.758 155.586L324.492 157.203L323.227 157.625L322.172 158.961L314.719 164.375L307.758 168.031L306.773 169.016L301.57 171.055L300.867 170.281L296.438 171.055L294.117 169.719L293.414 168.031L291.797 169.016L288.773 166.414L288.492 163.813L286.945 162.969Q286.172 162.547 284.906 160.789L285.188 158.961L283.008 156.641L283.57 155.023L282.305 151.016L284.625 149.68L283.852 147.148L282.586 146.516L282.586 144.828L284.625 140.961L283.008 138.922L283.852 136.32L285.609 135.336L284.344 133.438L284.344 132.453L285.891 129.43L285.609 126.828L287.508 122.328L288.211 121.344L287.93 119.586L291.797 109.813L292.781 109.813L293.836 106.227L295.523 104.539Q296.438 103.625 296.719 102.641L295.945 101.023Q297 100.109 297.984 98.4219L298.688 98.1406L298.969 98.4219L299.32 96.7344Q302.766 93.7813 303.188 90.9688L306.492 87.9453L310.781 84.6406L311.414 83.3047Q312.75 83.0938 315.703 80.4219L315.984 80.7031Q319.992 77.1875 320.906 76.8359L325.055 75.2891L325.758 74.5156L327.375 74.2344L329.414 72.9688L332.297 72.6875ZM778.008 72.9688L776.32 72.6875L773.438 72.9688L771.398 74.2344L769.781 74.5156L769.078 75.2891L764.93 76.8359Q764.016 77.1875 760.008 80.7031L759.727 80.4219Q756.773 83.0938 755.438 83.3047L754.805 84.6406L750.516 87.9453L747.211 90.9688Q746.789 93.7813 743.344 96.7344L742.992 98.4219L742.711 98.1406L742.008 98.4219Q741.023 100.109 739.969 101.023L740.742 102.641Q740.461 103.625 739.547 104.539L737.859 106.227L736.805 109.813L735.82 109.813L731.953 119.586L732.234 121.344L731.531 122.328L729.633 126.828L729.914 129.43L728.367 132.453L728.367 133.438L729.633 135.336L727.875 136.32L727.031 138.922L728.648 140.961L726.609 144.828L726.609 146.516L727.875 147.148L728.648 149.68L726.328 151.016L727.594 155.023L727.031 156.641L729.211 158.961L728.93 160.789Q730.195 162.547 730.969 162.969L732.516 163.813L732.797 166.414L735.82 169.016L737.438 168.031L738.141 169.719L740.461 171.055L744.891 170.281L745.594 171.055L750.797 169.016L751.781 168.031L758.742 164.375L766.195 158.961L767.25 157.625L768.516 157.203L769.781 155.586L772.664 155.023Q773.578 153.266 775.406 152L776.742 152L778.289 156.922L779.906 157.906L780.891 160.508L780.328 160.789L778.992 166.133Q780.188 167.961 780.609 173.867L779.344 175.625L779.625 180.125L777.164 187.859L775.688 188.422L775.688 189.477L771.258 196.367L771.258 198.125L766.898 202.555L766.336 204.594L764.648 205.859L760.43 210.078L760.43 210.781L755.578 214.93L754.242 215.633L752.977 216.688L749.953 217.953L747.914 219.852L741.445 223.156L738.563 224.141L737.578 225.195L736.242 225.195L733.57 226.25Q730.828 227.375 730.336 228.078L729.352 228.078L728.016 228.781L727.734 228.359Q726.68 229.063 724.148 229.625L723.445 229.344L722.461 230.609L721.828 230.328L720.563 233.211L722.18 235.25L724.57 235.039Q725.484 234.969 726.398 234.477L728.016 233.633L728.789 234.266L730.336 233.984L732.375 231.383L734.273 232.367L738.563 230.328L740.883 230.609L742.992 230.047L744.047 227.023L746.367 225.477L747.633 225.758L750.234 222.875L751.219 223.156L752.555 221.82L760.008 217.672L760.43 216.266L761.766 215.984L763.313 213.664L765.914 212.609L765.914 211.344L766.336 210.5Q767.531 210.219 769.5 208.742L769.219 206.844L771.82 206.141Q773.789 203.75 775.688 202.273L776.742 200.234L778.711 197.984L780.047 195.102L781.313 193.766L782.367 191.727L784.617 190.18L784.898 189.195L785.25 189.898Q785.32 189.336 787.5 186.313L788.555 184.273L788.555 183.008L789.539 181.391L791.156 175.203L794.602 165.711L794.602 162.547L795.305 161.492L795.023 158.188L796.008 156.359L796.008 152.703L795.305 151.719L795.023 136.32L796.289 136.039L798.188 130.836L795.305 129.43L794.32 130.836L792 129.148L790.102 129.43L784.758 133.016L782.648 133.719L776.742 139.625L776.742 143.492Q774.984 144.898 773.438 147.852Q772.031 147.852 770.238 149.258Q768.445 150.664 768.234 151.719L765.914 152.281L765.914 153.055Q762.891 154.32 762.328 154.813L760.992 155.867L755.719 158.609L754.102 161.492L753.398 161.492Q751.922 162.828 749.813 163.813L748.898 163.531L742.289 164.094L739.406 163.531L739.406 161.492L741.727 161.492L738.141 159.523L737.156 157.203L733.5 150.734L733.219 147.43L732.234 144.828L732.797 142.227L734.273 140.961L733.781 135.758L734.836 133.016L734.273 131.398L734.555 129.43L736.383 127.813L737.438 121.344L738.422 120.641L738.422 117.758L739.969 117.758L740.742 115.086Q741.023 114.172 741.867 113.188L743.344 111.57L744.328 106.648L747.633 103.063L747.914 101.305L748.898 100.742L750.234 97.7188L760.992 86.9609L761.625 86.9609Q761.906 86.3984 766.477 84.3594L770.133 84.3594L772.102 85.3438L772.664 85.3438L773.438 86.6094L774.703 90.9688L774 96.7344L774 100.32L773.438 103.906L773.719 105.945L771.82 110.516L773.156 113.398L772.664 115.438L774 117.758L777.305 117.477Q777.797 115.789 779.906 113.82L782.648 114.734L783.211 113.398Q785.039 112.133 788.133 110.797L789.398 108.547L789.117 105.945L789.68 103.625Q792.703 102.359 793.055 101.938L793.969 101.023L791.156 94.8359L792 92.7969L792 91.25L790.383 90.9688L788.414 91.5313L787.5 89.6328L789.117 87.9453L789.117 84.6406L788.836 81.4766L789.68 79.7188L787.5 76.1328L786.516 76.1328L785.813 74.5156L785.531 74.7969L785.25 73.9531L783.211 73.25L779.625 73.5313L778.008 72.9688ZM54.2813 79.4375L51.6797 80.7031L48.0938 80.4219L45.7734 80.7031L43.4531 80.4219L41.9063 86.3281L42.6094 87.6641L42.1875 89.9844L42.6094 91.25L41.3438 93.2891L41.625 99.7578L40.6406 103.625L41.3438 105.383L40.9219 107.984L41.3438 109.25L39.8672 111.852L39.8672 116.422Q43.7344 116.984 45.7734 118.039L49.0781 116.703L51.3984 116.703L52.7344 115.719L59.625 114.172L80.5078 105.383L81.5625 104.398Q82.0547 103.906 84.375 103.063L84.375 102.641L86.6953 101.727L90.9844 98.1406L92.6016 95.1172Q90.2109 90.9688 87.3984 88.9297L86.6953 88.9297L79.8047 83.7266L75.3047 83.0234L74.0391 81.7578L70.3828 81.4766L67.7109 81.7578L67.0781 80.4219L65.1094 79.7188L61.1719 81.4766L58.6406 80.4219L56.6016 81.1953L54.2813 79.4375ZM482.484 79.4375L479.883 80.7031L476.297 80.4219L473.977 80.7031L471.656 80.4219L470.109 86.3281L470.813 87.6641L470.391 89.9844L470.813 91.25L469.547 93.2891L469.828 99.7578L468.844 103.625L469.547 105.383L469.125 107.984L469.547 109.25L468.07 111.852L468.07 116.422Q471.938 116.984 473.977 118.039L477.281 116.703L479.602 116.703L480.938 115.719L487.828 114.172L508.711 105.383L509.766 104.398Q510.258 103.906 512.578 103.063L512.578 102.641L514.898 101.727L519.188 98.1406L520.805 95.1172Q518.414 90.9688 515.602 88.9297L514.898 88.9297L508.008 83.7266L503.508 83.0234L502.242 81.7578L498.586 81.4766L495.914 81.7578L495.281 80.4219L493.313 79.7188L489.375 81.4766L486.844 80.4219L484.805 81.1953L482.484 79.4375ZM563.977 85.625L566.859 83.7266L568.195 86.9609L568.898 87.3828L569.461 88.6484L569.461 91.25L570.445 92.2344Q570.727 93.9219 572.484 97.1563L572.203 98.1406L573.82 100.039L573.047 100.039Q574.523 103.203 574.805 105.383L574.102 105.945L574.383 108.266L576.07 108.828L575.789 110.516L576.352 113.82L577.125 113.82L576.633 114.734L575.367 115.438L575.086 116.422L576.352 118.039L576.07 118.742L576.352 120.922L576.352 122.961L577.406 124.227L576.352 124.93Q576.07 126.195 575.543 127.074Q575.016 127.953 573.469 128.797L572.203 129.852L569.461 131.117L567.914 132.734L570.938 132.172Q572.484 133.719 572.977 133.859L575.789 134.703Q575.438 136.32 574.383 138.078L574.383 139.625L575.789 140.961L572.766 142.227L572.484 143.773L570.445 144.828L568.195 149.117L567.563 151.016L566.297 151.438Q565.805 152.844 563.695 155.305L561.375 155.305L560.672 156.641L560.391 156.641L559.688 158.961L558.07 159.242L557.789 159.945L555.188 161.211L554.203 159.523L551.18 160.227Q549.281 157.906 548.789 157.625L547.594 156.922Q547.102 155.094 545.977 152.703L546.258 151.719Q545.836 150.734 544.43 149.68L544.43 146.094L544.711 143.492L544.008 143.492L543.094 141.523L545.273 140.188L544.008 139.625L544.992 134.422L545.977 131.398L545.273 130.414L545.977 128.094L545.273 127.531L546.75 124.227L546.258 121.906L548.859 115.719L548.859 115.156L550.617 113.398L550.617 112.133L551.18 109.813L552.938 108.266L552.938 105.383L553.781 104.328Q554.203 101.727 554.836 100.602L556.102 98.1406L557.367 94.8359Q559.125 91.8125 559.898 90.9688L561.727 89.2109L563.977 85.625ZM397.406 130.273L395.367 129.992Q394.734 130.414 394.242 130.414Q393.609 130.414 393.328 129.711L393.328 130.273L392.203 129.992L388.125 131.117L387.844 130.836L387.563 130.836L387.281 131.398L387 131.117Q386.648 131.68 384.68 131.68L384.961 131.398L382.992 132.031L382.992 132.313L380.672 132.875L380.109 134.563L379.547 134.281Q378.914 134.914 378.352 136.32Q376.523 137.797 375.434 140.047Q374.344 142.297 374.344 143.633Q374.344 145.531 377.227 145.531L377.227 145.25L377.789 145.531L377.789 145.25Q382.852 139.766 387 139.766L387.844 139.766L390.727 140.961L395.086 140.961Q397.477 140.961 399.656 142.648L401.695 142.648L403.172 143.703Q403.734 144.125 404.227 144.195L406.617 144.688L408.586 145.531L410.344 145.25Q410.977 144.125 413.227 142.93L414.352 140.047L417.797 139.484L419.555 137.164L419.273 137.164L419.273 136.32Q417.586 135.195 414.352 135.195L414.07 135.195L412.945 134.563L412.383 134.844L412.383 134.563L411.188 134.563L411.188 134.281L408.867 133.438L407.742 133.719L403.734 132.313L404.859 132.313L403.102 131.398L401.977 131.398L401.977 130.836L401.414 130.836L399.375 131.117L399.656 130.836Q398.32 130.625 397.688 129.992L397.406 130.273Z" />
    </g>
  </g>
</svg>